<?xml version="1.0" encoding="UTF-8" standalone="no"?>
<svg
   version="1.0"
   width="514pt"
   height="514pt"
   viewBox="0 0 514 514"
   style=""
   preserveAspectRatio="xMidYMid meet"
   id="svg6"
   sodipodi:docname="FabConvert.com_512.svg"
   inkscape:version="1.4.2 (f4327f4, 2025-05-13)"
   xmlns:inkscape="http://www.inkscape.org/namespaces/inkscape"
   xmlns:sodipodi="http://sodipodi.sourceforge.net/DTD/sodipodi-0.dtd"
   xmlns="http://www.w3.org/2000/svg"
   xmlns:svg="http://www.w3.org/2000/svg">
  <defs
     id="defs6" />
  <sodipodi:namedview
     id="namedview6"
     pagecolor="#505050"
     bordercolor="#eeeeee"
     borderopacity="1"
     inkscape:showpageshadow="0"
     inkscape:pageopacity="0"
     inkscape:pagecheckerboard="0"
     inkscape:deskcolor="#505050"
     inkscape:document-units="pt"
     inkscape:zoom="0.62"
     inkscape:cx="423.3871"
     inkscape:cy="555.64516"
     inkscape:window-width="1920"
     inkscape:window-height="1013"
     inkscape:window-x="-9"
     inkscape:window-y="-9"
     inkscape:window-maximized="1"
     inkscape:current-layer="svg6" />
  <rect
     style="fill:#ffffff;fill-opacity:1;stroke-width:5.56149"
     id="rect7"
     width="130.92451"
     height="101.12359"
     x="197.55864"
     y="145.47169" />
  <g
     fill="#FFFFFFFF"
     stroke="#FFFFFFFF"
     id="g2"
     style="fill:#f9f9f9"
     transform="matrix(1.0270974,0,0,1.003141,-13.858796,0.73990906)">
    <path
       d="m 368.527,71.202 c 11.845,6.342 20.984,13.124 29.987,22.255 23.239,23.569 33.888,50.051 35.203,87.543 1.475,42.084 -8.06,70.71 -32.25,96.818 -10.29,11.106 -24.422,21.628 -38.548,28.701 -4.08,2.044 -7.555,3.836 -7.72,3.983 -0.166,0.147 16.691,25.817 37.459,57.044 l 37.761,56.776 2.215,-8.411 c 1.218,-4.626 5.452,-20.786 9.409,-35.911 3.957,-15.125 9.339,-35.6 11.961,-45.5 3.698,-13.964 34.208,-130.046 51.515,-196 6.922,-26.38 6.588,-24.473 4.913,-28.002 -2.011,-4.238 -5.292,-5.786 -20.932,-9.874 -7.15,-1.869 -38.2,-10 -69,-18.068 -30.8,-8.068 -56.9,-14.891 -58,-15.161 -1.1,-0.27 1.612,1.443 6.027,3.807"
       id="path2"
       style="fill:#f9f9f9" />
  </g>
  <g
     fill="#FFFFFFFF"
     stroke="#FFFFFFFF"
     id="g3"
     style="fill:#f9f9f9"
     transform="matrix(0.99307894,0,0,1.0348036,1.1177508,-17.799931)">
    <path
       d="M 199,388.982 V 449 l -18.75,0.048 -18.75,0.048 12.5,3.318 c 6.875,1.825 54.8,14.453 106.5,28.064 51.7,13.61 99.748,26.286 106.773,28.17 12.282,3.292 12.904,3.362 16.173,1.811 4.465,-2.119 5.504,-4.563 11.041,-25.959 3.957,-15.294 5.852,-22.285 9.145,-33.75 0.474,-1.65 -2.371,-1.75 -49.869,-1.75 h -50.372 l -24.946,-38.718 c -13.72,-21.296 -31.04,-48.183 -38.49,-59.75 L 246.41,329.5 222.705,329.232 199,328.964 v 60.018"
       id="path3"
       style="fill:#f9f9f9" />
  </g>
  <g
     fill="#FFFFFFFF"
     stroke="#FFFFFFFF"
     id="g4"
     style="fill:#f9f9f9"
     transform="matrix(1.0132807,0,0,1.0201831,0.70817561,-9.3390677)">
    <path
       d="m 91.247,60.109 c -0.136,0.885 -4.1,16.185 -8.809,34 C 72.003,133.588 67.772,149.664 48.518,223 44.258,239.225 38.626,260.6 36.003,270.5 3.262,394.066 1.842,399.864 3.461,403.276 c 0.846,1.783 2.447,3.81 3.558,4.504 1.112,0.694 19.899,5.993 41.751,11.776 21.851,5.782 40.519,10.754 41.483,11.047 1.666,0.507 1.74,-8.629 1.497,-185.785 C 91.61,142.343 91.383,59.224 91.247,60.109"
       id="path4"
       style="fill:#f9f9f9" />
  </g>
  <g
     fill="#FFFFFFFF"
     stroke="#FFFFFFFF"
     id="g6"
     style="fill:#f9f9f9"
     transform="matrix(1.0040537,0,0,1,-1.0614934,0.75604839)">
    <path
       d="m 110.421,3.419 c -1.767,0.769 -3.762,2.78 -4.681,4.718 C 104.354,11.056 94,48.625 94,50.733 c 0,0.422 40.837,0.767 90.75,0.767 49.912,0 97.95,0.295 106.75,0.656 15.244,0.624 15.74,0.586 10.5,-0.808 C 298.975,50.543 257.35,39.575 209.5,26.975 161.65,14.374 120.928,3.6 119.007,3.033 114.66,1.748 114.212,1.768 110.421,3.419"
       id="path6"
       style="fill:#f9f9f9" />
  </g>
  <g
     fill="#BBB2EFFF"
     stroke="#BBB2EFFF"
     id="g1"
     style="fill:#bbb2ef;fill-opacity:1">
    <path
       d="M 92.633 54.087 C 91.796 58.271 91.820 419.814 92.658 436.250 L 93.309 449.000 146.154 449.000 L 199.000 449.000 199.000 388.982 L 199.000 328.964 222.705 329.232 L 246.410 329.500 259.955 350.532 C 267.405 362.099 284.725 388.986 298.445 410.282 L 323.391 449.000 384.302 449.000 C 441.647 449.000 445.175 448.899 444.550 447.269 C 443.529 444.610 429.790 423.542 390.694 364.684 C 371.001 335.036 355.026 310.656 355.194 310.507 C 355.362 310.357 358.839 308.563 362.919 306.519 C 377.045 299.446 391.177 288.924 401.467 277.818 C 425.657 251.710 435.192 223.084 433.717 181.000 C 432.702 152.063 425.758 128.828 412.493 109.991 C 389.371 77.154 354.314 58.701 304.000 52.882 C 297.975 52.185 257.700 51.626 193.883 51.353 L 93.265 50.923 92.633 54.087 M 291.500 149.322 C 306.598 153.654 317.937 162.087 322.483 172.365 C 328.539 186.060 328.289 204.673 321.879 217.237 C 318.464 223.931 309.383 232.720 302.560 235.934 C 290.606 241.566 286.172 242.000 240.553 242.000 L 199.000 242.000 199.000 194.442 L 199.000 146.884 242.250 147.242 C 279.448 147.550 286.340 147.841 291.500 149.322 "
       id="path1"
       style="fill:#bbb2ef;fill-opacity:1" />
  </g>
</svg>
